<?xml version="1.0" encoding="UTF-8"?>
<svg xmlns="http://www.w3.org/2000/svg" xmlns:xlink="http://www.w3.org/1999/xlink" width="3001" height="3001" viewBox="0 0 3001 3001">
<path fill-rule="evenodd" fill="rgb(100%, 100%, 100%)" fill-opacity="1" d="M 1 0 L 3001 0 L 3001 3000 L 1 3000 L 1 0 "/>
<path fill-rule="evenodd" fill="rgb(0%, 0%, 0%)" fill-opacity="1" d="M 1601 2170.453125 L 841.90625 2170.453125 C 828.269531 2170.453125 819.179688 2161.367188 819.179688 2147.730469 C 819.179688 2134.089844 828.269531 2125.003906 841.90625 2125.003906 C 914.636719 2125.003906 973.726562 2065.910156 973.726562 1993.179688 C 973.726562 1927.269531 923.730469 1872.730469 860.089844 1863.640625 C 853.269531 1863.640625 846.453125 1863.640625 839.632812 1861.359375 C 835.089844 1861.359375 830.546875 1859.089844 825.996094 1854.539062 L 823.722656 1852.269531 C 821.449219 1850 819.179688 1845.449219 819.179688 1840.910156 C 819.179688 1838.628906 819.179688 1838.628906 819.179688 1836.359375 C 819.179688 1831.820312 821.453125 1827.269531 823.722656 1825 C 823.722656 1822.71875 825.996094 1822.71875 828.269531 1820.449219 C 828.269531 1820.449219 828.269531 1820.449219 830.539062 1818.179688 L 1076 1640.910156 C 1060.089844 1586.359375 1010.089844 1547.71875 950.996094 1547.71875 L 773.726562 1547.730469 C 760.089844 1547.730469 751 1538.640625 751 1525 C 751 1511.359375 760.089844 1502.269531 773.726562 1502.269531 C 846.453125 1502.269531 905.546875 1443.179688 905.546875 1370.449219 C 905.546875 1297.730469 846.453125 1238.628906 773.726562 1238.628906 C 766.90625 1238.628906 762.363281 1236.359375 757.820312 1231.820312 L 755.546875 1229.539062 C 753.269531 1227.269531 751 1222.71875 751 1218.179688 C 751 1215.910156 751 1215.910156 751 1213.628906 C 751 1209.089844 753.273438 1204.539062 755.546875 1202.269531 C 755.546875 1200 757.820312 1200 760.089844 1197.730469 C 760.089844 1197.730469 760.089844 1197.730469 762.363281 1195.449219 L 1262.359375 834.089844 C 1266.910156 831.820312 1271.449219 829.539062 1276 829.539062 L 1889.640625 829.539062 C 1991.910156 829.539062 2071.460938 909.089844 2071.460938 1011.359375 C 2071.460938 1059.089844 2051 1106.820312 2014.640625 1136.359375 L 2010.089844 1140.910156 L 2073.730469 1140.910156 C 2171.449219 1140.910156 2251 1220.449219 2251 1318.179688 C 2251 1365.910156 2230.539062 1411.359375 2194.179688 1447.730469 L 2110.089844 1531.820312 C 2130.550781 1559.089844 2141.910156 1593.179688 2141.910156 1629.550781 C 2141.910156 1672.730469 2121.449219 1718.179688 2085.089844 1754.550781 L 1748.730469 2090.910156 C 1746.449219 2093.183594 1744.179688 2095.457031 1741.910156 2095.457031 C 1707.820312 2145.453125 1657.820312 2170.453125 1601 2170.453125 Z M 962.363281 2125 L 1603.269531 2125 C 1676 2125 1735.089844 2065.90625 1735.089844 1993.179688 C 1735.089844 1920.449219 1676 1861.359375 1603.269531 1861.359375 L 962.363281 1861.359375 C 998.726562 1893.179688 1021.460938 1940.910156 1021.460938 1993.179688 C 1021.460938 2045.457031 996.453125 2093.183594 962.363281 2125 Z M 1778.269531 1995.449219 C 1778.269531 1997.730469 1778.269531 2002.273438 1778.269531 2004.542969 L 2051 1731.820312 C 2078.269531 1704.550781 2094.179688 1670.449219 2094.179688 1638.640625 C 2094.179688 1613.628906 2087.359375 1590.910156 2076 1572.730469 L 1855.550781 1788.628906 C 1814.640625 1834.089844 1766.910156 1861.359375 1719.179688 1863.628906 C 1755.539062 1895.460938 1778.269531 1943.179688 1778.269531 1995.449219 C 1778.269531 1993.179688 1778.269531 1995.449219 1778.269531 1995.449219 Z M 1707.820312 1818.179688 C 1782.820312 1809.089844 1839.640625 1752.269531 1844.179688 1686.359375 C 1844.179688 1681.820312 1844.179688 1677.269531 1844.179688 1672.730469 C 1837.359375 1613.628906 1782.820312 1550 1710.089844 1550 L 1069.179688 1550 C 1140.5 1614.828125 1156.828125 1730.53125 1085.089844 1802.269531 C 1080.550781 1806.820312 1076 1811.359375 1071.449219 1813.640625 C 1071.449219 1813.640625 1071.449219 1813.640625 1069.179688 1813.640625 C 1284.480469 1813.640625 1497.53125 1818.179688 1707.820312 1818.179688 Z M 914.636719 1818.179688 L 939.636719 1818.179688 C 985.089844 1813.640625 1019.179688 1802.269531 1041.910156 1781.820312 C 1064.640625 1759.089844 1080.550781 1729.550781 1082.820312 1695.460938 Z M 1891.910156 1686.359375 L 2160.089844 1422.730469 C 2187.359375 1395.460938 2203.269531 1361.359375 2203.269531 1325 C 2203.269531 1252.269531 2144.179688 1193.179688 2071.449219 1193.179688 L 1962.359375 1193.179688 L 1676 1479.539062 C 1673.730469 1481.820312 1673.730469 1481.820312 1671.449219 1484.089844 C 1669.179688 1486.359375 1664.640625 1490.910156 1662.371094 1493.179688 C 1657.820312 1497.71875 1653.28125 1502.269531 1648.730469 1506.820312 L 1710.089844 1506.820312 C 1812.359375 1506.820312 1891.910156 1586.359375 1891.910156 1686.359375 Z M 1532.820312 1506.820312 C 1562.359375 1506.820312 1589.628906 1497.730469 1610.089844 1481.820312 C 1614.628906 1477.269531 1621.449219 1472.730469 1630.550781 1463.640625 C 1651 1440.910156 1662.371094 1411.359375 1662.371094 1377.269531 C 1662.371094 1304.539062 1603.269531 1245.449219 1530.550781 1245.449219 L 889.636719 1245.449219 C 926 1277.269531 948.726562 1325 948.726562 1377.269531 C 948.726562 1429.550781 926 1475 889.636719 1509.089844 C 1101.578125 1509.078125 1318.070312 1506.820312 1532.820312 1506.820312 Z M 1707.820312 1375 C 1707.820312 1377.269531 1707.820312 1379.539062 1707.820312 1381.820312 C 1728.269531 1359.089844 1755.550781 1331.820312 1787.359375 1300 L 1980.539062 1111.359375 C 1980.539062 1111.359375 1980.539062 1111.359375 1982.820312 1109.089844 C 2007.820312 1086.359375 2023.730469 1052.269531 2023.730469 1018.179688 C 2023.730469 940.910156 1964.640625 881.820312 1887.359375 881.820312 L 1280.539062 881.820312 L 841.90625 1197.730469 L 1530.550781 1197.730469 C 1628.269531 1197.730469 1707.820312 1277.269531 1707.820312 1375 "/>
</svg>
